<svg width="1660" height="512" viewBox="0 0 1660 512" fill="none" xmlns="http://www.w3.org/2000/svg">
<g clip-path="url(#clip0_1_30)">
<path d="M223.08 424.59C218.549 424.59 214.61 423.507 211.261 421.34C208.109 418.976 206.041 415.529 205.056 410.999L198.556 384.702C186.934 397.899 173.638 408.635 158.667 416.908C143.697 424.984 126.166 429.022 106.074 429.022C90.5123 429.022 76.2313 425.674 63.2306 418.976C50.2299 412.279 39.002 402.528 29.547 389.725C20.2889 376.921 13.0007 361.261 7.68222 342.745C2.56082 324.032 0 302.66 0 278.628C0 256.763 2.9548 236.573 8.8641 218.057C14.7735 199.344 23.1452 183.191 33.979 169.6C44.8129 155.811 57.8135 145.076 72.9811 137.393C88.3455 129.514 105.384 125.575 124.097 125.575C139.856 125.575 153.25 128.037 164.281 132.961C175.509 137.689 185.555 144.288 194.419 152.758V0H269.469V424.59H223.08ZM132.37 369.633C139.265 369.633 145.568 368.943 151.281 367.564C157.19 365.989 162.607 363.822 167.531 361.064C172.456 358.306 177.085 354.958 181.418 351.018C185.949 346.882 190.283 342.154 194.419 336.836V207.42C186.934 197.965 178.759 191.464 169.895 187.919C161.228 184.176 151.872 182.305 141.826 182.305C132.174 182.305 123.309 184.275 115.233 188.214C107.354 191.957 100.558 197.768 94.8458 205.647C89.3303 213.526 84.9967 223.572 81.8452 235.785C78.8904 247.801 77.4131 262.082 77.4131 278.628C77.4131 295.371 78.6934 309.554 81.2542 321.176C83.815 332.601 87.4591 341.957 92.1866 349.245C96.9141 356.337 102.627 361.557 109.324 364.905C116.218 368.057 123.9 369.633 132.37 369.633Z" fill="black"/>
<path d="M1170.99 7.73154H565.87C426.62 7.73154 313.736 120.616 313.736 259.866C313.736 399.116 426.62 512 565.87 512H1170.99C1310.24 512 1423.13 399.116 1423.13 259.866C1423.13 120.616 1310.24 7.73154 1170.99 7.73154Z" fill="black"/>
<path d="M1170.99 58.1584H565.87C454.47 58.1584 364.163 148.466 364.163 259.866C364.163 371.266 454.47 461.573 565.87 461.573H1170.99C1282.39 461.573 1372.7 371.266 1372.7 259.866C1372.7 148.466 1282.39 58.1584 1170.99 58.1584Z" fill="#DCDCDC"/>
<path d="M1170.99 461.573C1282.39 461.573 1372.7 371.266 1372.7 259.866C1372.7 148.466 1282.39 58.1584 1170.99 58.1584C1059.59 58.1584 969.285 148.466 969.285 259.866C969.285 371.266 1059.59 461.573 1170.99 461.573Z" fill="#DCDCDC"/>
<path d="M1170.99 411.146C1254.54 411.146 1322.27 343.416 1322.27 259.866C1322.27 176.316 1254.54 108.585 1170.99 108.585C1087.44 108.585 1019.71 176.316 1019.71 259.866C1019.71 343.416 1087.44 411.146 1170.99 411.146Z" fill="#008000"/>
<path d="M551.222 108.581C529.669 108.581 510.043 112.454 492.354 120.183C474.666 127.764 459.506 138.312 446.872 151.838C434.237 165.216 424.429 181.193 417.443 199.773C410.606 218.205 407.19 238.201 407.19 259.754C407.19 281.455 410.606 301.597 417.443 320.177C424.429 338.609 434.237 354.586 446.872 368.112C459.506 381.639 474.666 392.196 492.354 399.777C510.043 407.358 529.669 411.143 551.222 411.143C572.775 411.143 592.391 407.358 610.08 399.777C627.768 392.196 642.86 381.639 655.345 368.112C667.98 354.586 677.71 338.609 684.548 320.177C691.385 301.597 694.81 281.455 694.81 259.754C694.81 238.201 691.385 218.205 684.548 199.773C677.71 181.342 667.98 165.365 655.345 151.838C642.86 138.312 627.768 127.764 610.08 120.183C592.391 112.454 572.775 108.581 551.222 108.581ZM732.492 111.93V408.02H784.219V232.551C784.219 224.673 783.772 216.13 782.88 206.914L928.251 397.994C931.224 401.562 934.191 404.159 937.164 405.795C940.286 407.281 944.158 408.02 948.766 408.02H978.865V111.93H927.355V285.391C927.355 294.16 927.802 303.453 928.694 313.263L782.88 121.07C781.245 119.138 779.756 117.581 778.418 116.392C777.229 115.203 775.896 114.307 774.41 113.713C773.072 112.97 771.505 112.522 769.722 112.373C767.938 112.076 765.788 111.93 763.261 111.93L732.492 111.93ZM551.222 158.309C564.302 158.309 575.969 160.683 586.225 165.44C596.63 170.048 605.397 176.742 612.532 185.512C619.815 194.282 625.391 204.907 629.255 217.393C633.12 229.879 635.056 243.998 635.056 259.754C635.056 275.658 633.12 289.933 629.255 302.567C625.391 315.053 619.815 325.679 612.532 334.448C605.397 343.07 596.63 349.686 586.225 354.294C575.969 358.902 564.302 361.198 551.222 361.198C538.141 361.198 526.397 358.902 515.992 354.294C505.587 349.686 496.742 343.07 489.459 334.448C482.324 325.679 476.826 315.053 472.962 302.567C469.097 289.933 467.161 275.658 467.161 259.754C467.161 243.998 469.097 229.879 472.962 217.393C476.826 204.907 482.324 194.282 489.459 185.512C496.742 176.742 505.587 170.048 515.992 165.44C526.397 160.683 538.141 158.309 551.222 158.309Z" fill="black"/>
<path d="M1563.87 108.581C1546.14 108.581 1530.58 111.044 1517.18 115.968C1503.98 120.893 1492.85 127.491 1483.79 135.765C1474.93 144.038 1468.23 153.69 1463.7 164.721C1459.17 175.555 1456.91 187.078 1456.91 199.291C1456.91 216.822 1460.16 230.906 1466.66 241.543C1473.16 252.18 1481.33 260.748 1491.18 267.249C1501.03 273.749 1511.57 278.871 1522.8 282.613C1534.22 286.356 1544.86 290 1554.71 293.546C1564.56 297.091 1572.73 301.326 1579.23 306.251C1585.73 310.978 1588.98 317.676 1588.98 326.343C1588.98 330.479 1588.19 334.517 1586.62 338.457C1585.24 342.397 1582.97 345.942 1579.82 349.094C1576.87 352.049 1572.83 354.412 1567.71 356.185C1562.78 357.958 1556.77 358.844 1549.68 358.844C1540.23 358.844 1532.35 357.663 1526.05 355.299C1519.74 352.935 1514.33 350.374 1509.79 347.616C1505.26 344.662 1501.03 342.003 1497.09 339.639C1493.35 337.275 1489.31 336.093 1484.98 336.093C1480.25 336.093 1476.41 337.078 1473.45 339.048C1470.5 341.018 1467.94 343.677 1465.77 347.026L1448.34 375.391C1453.66 380.512 1459.96 385.24 1467.25 389.573C1474.73 393.907 1482.71 397.748 1491.18 401.097C1499.65 404.248 1508.51 406.71 1517.77 408.483C1527.03 410.256 1536.39 411.143 1545.84 411.143C1564.36 411.143 1580.61 408.68 1594.59 403.756C1608.78 398.831 1620.6 392.035 1630.05 383.368C1639.7 374.701 1646.99 364.36 1651.92 352.344C1656.84 340.328 1659.3 327.229 1659.3 313.047C1659.3 301.228 1657.43 291.083 1653.69 282.613C1649.95 274.143 1644.92 266.953 1638.62 261.044C1632.51 255.134 1625.52 250.21 1617.64 246.27C1609.96 242.134 1601.98 238.588 1593.71 235.633C1585.43 232.679 1577.36 229.921 1569.48 227.36C1561.8 224.8 1554.8 222.042 1548.5 219.087C1542.39 215.935 1537.47 212.39 1533.73 208.45C1529.99 204.314 1528.11 199.192 1528.11 193.086C1528.11 184.025 1531.36 176.835 1537.86 171.516C1544.36 166.001 1553.52 163.243 1565.34 163.243C1573.03 163.243 1579.82 164.228 1585.73 166.198C1591.64 167.971 1596.86 170.039 1601.39 172.403C1606.12 174.57 1610.35 176.638 1614.1 178.608C1618.04 180.381 1621.78 181.267 1625.32 181.267C1628.67 181.267 1631.43 180.676 1633.6 179.494C1635.96 178.115 1638.13 175.752 1640.1 172.403L1656.94 145.22C1651.82 139.901 1645.91 134.977 1639.21 130.446C1632.71 125.916 1625.42 122.074 1617.35 118.923C1609.47 115.574 1601 113.013 1591.94 111.241C1582.87 109.468 1573.52 108.581 1563.87 108.581Z" fill="black"/>
</g>
<defs>
<clipPath id="clip0_1_30">
<rect width="1659.3" height="512" fill="white"/>
</clipPath>
</defs>
</svg>
